<?xml version="1.0" encoding="UTF-8" standalone="no"?>
<svg width="1200" height="630" viewBox="0 0 1200 630" xmlns="http://www.w3.org/2000/svg">
  <!-- Arkaplan -->
  <rect width="1200" height="630" fill="#121212"/>
  
  <!-- Parçacıklar Efekti (Basitleştirilmiş) -->
  <g opacity="0.2">
    <circle cx="200" cy="150" r="4" fill="#ffffff"/>
    <circle cx="500" cy="300" r="3" fill="#ffffff"/>
    <circle cx="800" cy="250" r="4" fill="#ffffff"/>
    <circle cx="1000" cy="200" r="5" fill="#ffffff"/>
    <circle cx="350" cy="500" r="3" fill="#ffffff"/>
    <circle cx="650" cy="450" r="4" fill="#ffffff"/>
    <circle cx="950" cy="500" r="3" fill="#ffffff"/>
    
    <!-- Bağlantı Çizgileri -->
    <line x1="200" y1="150" x2="500" y2="300" stroke="#ffffff" stroke-width="1" opacity="0.15"/>
    <line x1="500" y1="300" x2="800" y2="250" stroke="#ffffff" stroke-width="1" opacity="0.15"/>
    <line x1="800" y1="250" x2="1000" y2="200" stroke="#ffffff" stroke-width="1" opacity="0.15"/>
    <line x1="350" y1="500" x2="650" y2="450" stroke="#ffffff" stroke-width="1" opacity="0.15"/>
    <line x1="650" y1="450" x2="950" y2="500" stroke="#ffffff" stroke-width="1" opacity="0.15"/>
  </g>
  
  <!-- Ana İçerik -->
  <g>
    <!-- Logo/İsim -->
    <text x="600" y="250" font-family="Segoe UI, sans-serif" font-size="70" font-weight="bold" fill="#20c9c1" text-anchor="middle">Murat ÖRÜN</text>
    
    <!-- Alt başlık/Meslek -->
    <text x="600" y="320" font-family="Segoe UI, sans-serif" font-size="30" font-weight="normal" fill="#3498db" text-anchor="middle">QA Engineer | Siber Güvenlik Uzmanı | Yapay Zeka Meraklısı</text>
    
    <!-- Açıklama -->
    <text x="600" y="380" font-family="Segoe UI, sans-serif" font-size="24" fill="#f5f5f5" text-anchor="middle">Kişisel websitem yakında yayında!</text>
    
    <!-- Ayırıcı Çizgi -->
    <rect x="400" y="420" width="400" height="4" rx="2" fill="#20c9c1" opacity="0.5"/>
    
    <!-- Beceri Rozetleri -->
    <g>
      <rect x="375" y="460" width="160" height="40" rx="20" fill="rgba(255,255,255,0.1)" stroke="rgba(32,201,193,0.2)" stroke-width="1"/>
      <text x="455" y="485" font-family="Segoe UI, sans-serif" font-size="16" fill="#20c9c1" text-anchor="middle">Test Otomasyonu</text>
    </g>
    
    <g>
      <rect x="555" y="460" width="160" height="40" rx="20" fill="rgba(255,255,255,0.1)" stroke="rgba(227,51,51,0.2)" stroke-width="1"/>
      <text x="635" y="485" font-family="Segoe UI, sans-serif" font-size="16" fill="#e33333" text-anchor="middle">Siber Güvenlik</text>
    </g>
    
    <g>
      <rect x="735" y="460" width="160" height="40" rx="20" fill="rgba(255,255,255,0.1)" stroke="rgba(52,152,219,0.2)" stroke-width="1"/>
      <text x="815" y="485" font-family="Segoe UI, sans-serif" font-size="16" fill="#3498db" text-anchor="middle">Yapay Zeka</text>
    </g>
  </g>
</svg>