<?xml version="1.0" encoding="UTF-8" standalone="no"?>
<svg width="1200" height="630" viewBox="0 0 1200 630" xmlns="http://www.w3.org/2000/svg">
  <!-- Arkaplan -->
  <rect width="1200" height="630" fill="#121212"/>
  
  <!-- Parçacıklar Efekti -->
  <g opacity="0.2">
    <circle cx="200" cy="150" r="3" fill="#ffffff"/>
    <circle cx="300" cy="250" r="2" fill="#ffffff"/>
    <circle cx="400" cy="100" r="4" fill="#ffffff"/>
    <circle cx="500" cy="300" r="3" fill="#ffffff"/>
    <circle cx="600" cy="200" r="2.5" fill="#ffffff"/>
    <circle cx="700" cy="150" r="3" fill="#ffffff"/>
    <circle cx="800" cy="250" r="2" fill="#ffffff"/>
    <circle cx="900" cy="350" r="3" fill="#ffffff"/>
    <circle cx="1000" cy="200" r="4" fill="#ffffff"/>
    <circle cx="1100" cy="300" r="2" fill="#ffffff"/>
    <circle cx="150" cy="400" r="3" fill="#ffffff"/>
    <circle cx="250" cy="450" r="2.5" fill="#ffffff"/>
    <circle cx="350" cy="500" r="3" fill="#ffffff"/>
    <circle cx="450" cy="550" r="2" fill="#ffffff"/>
    <circle cx="550" cy="450" r="4" fill="#ffffff"/>
    <circle cx="650" cy="500" r="3" fill="#ffffff"/>
    <circle cx="750" cy="400" r="2" fill="#ffffff"/>
    <circle cx="850" cy="500" r="3" fill="#ffffff"/>
    <circle cx="950" cy="450" r="4" fill="#ffffff"/>
    <circle cx="1050" cy="550" r="2.5" fill="#ffffff"/>
  </g>
  
  <!-- Bağlantı Çizgileri -->
  <g opacity="0.15">
    <line x1="200" y1="150" x2="300" y2="250" stroke="#ffffff" stroke-width="1"/>
    <line x1="300" y1="250" x2="400" y2="100" stroke="#ffffff" stroke-width="1"/>
    <line x1="400" y1="100" x2="500" y2="300" stroke="#ffffff" stroke-width="1"/>
    <line x1="500" y1="300" x2="600" y2="200" stroke="#ffffff" stroke-width="1"/>
    <line x1="600" y1="200" x2="700" y2="150" stroke="#ffffff" stroke-width="1"/>
    <line x1="700" y1="150" x2="800" y2="250" stroke="#ffffff" stroke-width="1"/>
    <line x1="800" y1="250" x2="900" y2="350" stroke="#ffffff" stroke-width="1"/>
    <line x1="900" y1="350" x2="1000" y2="200" stroke="#ffffff" stroke-width="1"/>
    <line x1="1000" y1="200" x2="1100" y2="300" stroke="#ffffff" stroke-width="1"/>
    <line x1="150" y1="400" x2="250" y2="450" stroke="#ffffff" stroke-width="1"/>
    <line x1="250" y1="450" x2="350" y2="500" stroke="#ffffff" stroke-width="1"/>
    <line x1="350" y1="500" x2="450" y2="550" stroke="#ffffff" stroke-width="1"/>
    <line x1="450" y1="550" x2="550" y2="450" stroke="#ffffff" stroke-width="1"/>
    <line x1="550" y1="450" x2="650" y2="500" stroke="#ffffff" stroke-width="1"/>
    <line x1="650" y1="500" x2="750" y2="400" stroke="#ffffff" stroke-width="1"/>
    <line x1="750" y1="400" x2="850" y2="500" stroke="#ffffff" stroke-width="1"/>
    <line x1="850" y1="500" x2="950" y2="450" stroke="#ffffff" stroke-width="1"/>
    <line x1="950" y1="450" x2="1050" y2="550" stroke="#ffffff" stroke-width="1"/>
  </g>
  
  <!-- İsim ve Unvan -->
  <text x="600" y="250" font-family="Segoe UI, sans-serif" font-size="60" font-weight="bold" fill="#20c9c1" text-anchor="middle">Murat ÖRÜN</text>
  
  <text x="600" y="320" font-family="Segoe UI, sans-serif" font-size="30" font-weight="normal" fill="#3498db" text-anchor="middle">QA Engineer | Siber Güvenlik Uzmanı | Yapay Zeka Meraklısı</text>
  
  <!-- Açıklama -->
  <text x="600" y="380" font-family="Segoe UI, sans-serif" font-size="24" fill="#f5f5f5" text-anchor="middle">Kişisel websitem yakında yayında!</text>
  
  <!-- Alt Çizgi -->
  <rect x="400" y="420" width="400" height="3" fill="#20c9c1" opacity="0.5" rx="1.5"/>
  
  <!-- Beceri Rozetleri -->
  <g>
    <rect x="300" y="460" width="160" height="40" rx="20" fill="rgba(255,255,255,0.1)" stroke="rgba(32,201,193,0.2)" stroke-width="1"/>
    <text x="380" y="485" font-family="Segoe UI, sans-serif" font-size="16" fill="#20c9c1" text-anchor="middle">Test Otomasyonu</text>
  </g>
  
  <g>
    <rect x="480" y="460" width="160" height="40" rx="20" fill="rgba(255,255,255,0.1)" stroke="rgba(227,51,51,0.2)" stroke-width="1"/>
    <text x="560" y="485" font-family="Segoe UI, sans-serif" font-size="16" fill="#e33333" text-anchor="middle">Siber Güvenlik</text>
  </g>
  
  <g>
    <rect x="660" y="460" width="160" height="40" rx="20" fill="rgba(255,255,255,0.1)" stroke="rgba(52,152,219,0.2)" stroke-width="1"/>
    <text x="740" y="485" font-family="Segoe UI, sans-serif" font-size="16" fill="#3498db" text-anchor="middle">Yapay Zeka</text>
  </g>
  
  <g>
    <rect x="840" y="460" width="100" height="40" rx="20" fill="rgba(255,255,255,0.1)" stroke="rgba(32,201,193,0.2)" stroke-width="1"/>
    <text x="890" y="485" font-family="Segoe UI, sans-serif" font-size="16" fill="#20c9c1" text-anchor="middle">CI/CD</text>
  </g>
</svg>